<?xml version="1.0" encoding="UTF-8" standalone="no"?>
<!-- Created with Inkscape (http://www.inkscape.org/) -->

<svg
   width="212.11404mm"
   height="173.90605mm"
   viewBox="0 0 212.11404 173.90605"
   version="1.1"
   id="svg1"
   xml:space="preserve"
   inkscape:version="1.3.2 (091e20e, 2023-11-25, custom)"
   sodipodi:docname="main.svg"
   xmlns:inkscape="http://www.inkscape.org/namespaces/inkscape"
   xmlns:sodipodi="http://sodipodi.sourceforge.net/DTD/sodipodi-0.dtd"
   xmlns="http://www.w3.org/2000/svg"
   xmlns:svg="http://www.w3.org/2000/svg"><sodipodi:namedview
     id="namedview1"
     pagecolor="#ffffff"
     bordercolor="#000000"
     borderopacity="0.25"
     inkscape:showpageshadow="2"
     inkscape:pageopacity="0.0"
     inkscape:pagecheckerboard="0"
     inkscape:deskcolor="#d1d1d1"
     inkscape:document-units="mm"
     inkscape:zoom="1.0520974"
     inkscape:cx="470.96402"
     inkscape:cy="336.946"
     inkscape:window-width="2560"
     inkscape:window-height="1377"
     inkscape:window-x="-8"
     inkscape:window-y="-8"
     inkscape:window-maximized="1"
     inkscape:current-layer="layer1" /><defs
     id="defs1" /><g
     inkscape:label="Layer 1"
     inkscape:groupmode="layer"
     id="layer1"
     transform="translate(19.553528,-59.331591)"><path
       style="fill:#000000"
       d="m -14.211338,233.06513 c -2.22827,-0.58442 -3.96154,-2.00479 -4.86175,-3.9841 -0.66591,-1.46417 -0.62964,-12.33399 0.047,-14.08743 0.57039,-1.47808 2.32747,-3.18526 3.77867,-3.67136 1.32785,-0.44478 4.13703,-0.45101 5.6662801,-0.0126 2.2109,0.63387 4.23333,3.51239 4.23333,6.02529 0,0.85717 -0.0278,0.87898 -1.12448,0.88182 -0.61846,0.002 -1.57096,0.0767 -2.11667,0.16691 -0.93133,0.15394 -0.99218,0.12237 -0.99218,-0.51485 0,-3.3863 -3.9351501,-4.61013 -5.1873301,-1.61326 -0.54584,1.30639 -0.52474,10.67908 0.0264,11.74495 0.52311,1.01158 1.39033,1.59042 2.38276,1.59042 1.47998,0 2.5282601,-1.17712 2.9232301,-3.28254 l 0.19048,-1.0153 1.4748,0.17333 c 2.68179,0.31519 2.63098,0.27815 2.39851,1.74878 -0.42522,2.68993 -1.72925,4.56556 -3.76561,5.4162 -1.1869201,0.49581 -3.9395401,0.73112 -5.0734901,0.43371 z m 45.70058,-0.2492 c -1.8582,-0.59512 -3.02886,-1.58347 -3.86646,-3.2643 -0.68373,-1.37207 -0.69141,-1.45348 -0.69141,-7.32412 0,-3.78499 0.11277,-6.31302 0.31115,-6.97516 0.44735,-1.49313 2.10224,-3.25594 3.58999,-3.82412 1.64854,-0.62959 4.57305,-0.62922 6.22268,7.8e-4 2.12072,0.80991 3.89909,3.5036 3.89909,5.90595 0,0.82113 -0.0584,0.87891 -0.88911,0.87891 -0.48901,0 -1.44151,0.0757 -2.11667,0.16825 -1.20212,0.16477 -1.22755,0.15327 -1.22755,-0.55532 0,-0.9507 -0.72129,-2.44259 -1.41628,-2.92938 -1.37328,-0.96188 -3.3732,-0.0952 -3.8648,1.67484 -0.14972,0.53908 -0.2727,3.12328 -0.27329,5.74265 -10e-4,5.21917 0.23768,6.26421 1.58562,6.93773 1.8329,0.91584 3.51039,-0.14689 4.00398,-2.53662 l 0.31317,-1.5162 1.94879,0.30571 c 1.07184,0.16815 1.99348,0.35248 2.04808,0.40963 0.2249,0.2354 -0.37297,2.89615 -0.86941,3.86927 -1.48854,2.91777 -5.11767,4.18124 -8.70757,3.0315 z m 99.245138,0.21935 c -2.19896,-0.46763 -3.61766,-1.62082 -4.56287,-3.70891 -0.50606,-1.11798 -0.5393,-1.71193 -0.54476,-9.73414 l -0.006,-8.54351 2.18281,0.0768 2.18281,0.0768 0.0759,8.29248 c 0.085,9.28809 0.0909,9.3182 1.93149,9.86965 1.32461,0.39686 2.52777,0.0573 3.25731,-0.91916 0.53328,-0.71381 0.55925,-1.08549 0.63293,-9.0598 l 0.0768,-8.31546 h 2.11906 2.11905 l -0.0792,8.95107 -0.0792,8.95107 -0.80256,1.29748 c -1.0842,1.7528 -2.97635,2.73806 -5.55163,2.89079 -1.01634,0.0603 -2.34481,0.004 -2.95216,-0.12525 z m 17.81733,-0.10273 c -0.70324,-0.19826 -1.59621,-0.59596 -1.98438,-0.88378 -1.08151,-0.80192 -2.1292,-2.46969 -2.31598,-3.6867 l -0.16829,-1.0966 1.86752,-0.42476 c 1.02714,-0.23362 1.91447,-0.42476 1.97185,-0.42476 0.0574,0 0.24873,0.48195 0.42521,1.07099 0.87524,2.92131 5.01934,2.68766 5.04613,-0.28451 0.0131,-1.45206 -0.6417,-2.07667 -3.65664,-3.48807 -1.53489,-0.71854 -3.13797,-1.55371 -3.5624,-1.85593 -1.15232,-0.82052 -1.75573,-2.39013 -1.76256,-4.5848 -0.0106,-3.40872 1.68199,-5.61469 4.76495,-6.21014 2.67743,-0.51712 5.60766,0.24847 6.91991,1.80799 0.76937,0.91434 1.65544,3.00718 1.48705,3.51233 -0.0597,0.17901 -1.01501,0.58709 -2.12299,0.90686 l -2.0145,0.5814 -0.17395,-0.92725 c -0.20195,-1.07648 -1.43995,-2.43512 -2.2189,-2.43512 -1.83299,0 -2.96986,1.90164 -2.10625,3.52313 0.4374,0.82126 0.83764,1.09006 3.64505,2.44802 3.30736,1.59979 3.95357,2.09342 4.57263,3.49291 0.58935,1.33232 0.71325,4.21624 0.23358,5.43684 -0.50854,1.29402 -1.61762,2.51551 -2.80667,3.09113 -1.46989,0.71156 -4.3228,0.91504 -6.04037,0.43082 z M -1.1144679,222.03963 v -10.99091 l 2.18282,0.0768 2.18281,0.0768 0.0626,10.91406 0.0626,10.91407 h -2.24547 -2.24546 z m 9.26042,0.0107 v -10.98021 h 2.0742099 2.0742 l 2.88673,6.46969 2.88673,6.46969 0.0708,-6.46969 0.0708,-6.46969 h 2.11205 2.11204 v 10.98021 10.98021 l -2.05052,-0.006 -2.05052,-0.006 -2.31229,-4.95539 c -1.27175,-2.72547 -2.64097,-5.66977 -3.0427,-6.5429 l -0.73043,-1.5875 -0.0708,6.54844 -0.0708,6.54844 h -1.97975 -1.9797499 z m 37.0416599,0 v -10.98021 h 2.11667 2.11667 v 10.98021 10.98021 h -2.11667 -2.11667 z m 9.26042,0.26458 c 0,-5.89359 0,-10.80492 0,-10.91406 0,-0.10914 0.91774,-0.19844 2.039422,-0.19844 h 2.03942 l 2.92152,6.39176 2.92151,6.39176 0.0708,-6.46895 0.0708,-6.46895 2.04588,0.0772 2.04587,0.0772 0.0691,10.91406 0.0691,10.91407 -2.05345,-0.004 -2.05346,-0.004 -1.65132,-3.50157 c -0.90823,-1.92586 -2.30052,-4.87078 -3.09398,-6.54427 l -1.44266,-3.04271 -0.0149,6.54844 -0.0149,6.54844 h -1.98437 -1.984382 z m 19.050002,-0.27571 v -10.99134 l 2.03596,0.0773 2.03597,0.0773 2.45792,5.42396 c 1.35186,2.98318 2.6681,5.90021 2.92498,6.48229 0.46421,1.05191 0.46747,1.01853 0.53784,-5.50115 l 0.0708,-6.55948 2.04587,0.0772 2.04587,0.0772 0.0691,10.91406 0.0691,10.91407 h -2.07931 -2.07931 l -1.71712,-3.63802 c -0.94441,-2.00092 -2.302,-4.91058 -3.01685,-6.46592 l -1.29973,-2.82789 -0.0708,6.46591 -0.0708,6.46592 h -1.97976 -1.97975 z m 18.05092,10.66061 c 0.0637,-0.1819 1.35638,-5.12184 2.87257,-10.97763 l 2.75672,-10.64689 2.40252,-0.003 2.402516,-0.003 2.84349,10.6151 c 1.56392,5.83831 2.90848,10.78446 2.98791,10.99144 0.11911,0.31041 -0.24091,0.36278 -2.05531,0.29896 l -2.19971,-0.0774 -0.56932,-2.11666 -0.56931,-2.11667 h -2.745976 -2.74599 l -0.52135,2.18281 -0.52135,2.18282 h -2.22664 c -1.66672,0 -2.1975,-0.0832 -2.11077,-0.33073 z m 9.891456,-8.33438 c -0.0765,-0.25466 -0.45258,-1.77271 -0.83573,-3.37344 -0.38314,-1.60072 -0.759106,-3.08901 -0.835496,-3.30729 -0.0764,-0.21828 -0.46035,0.97235 -0.85325,2.64584 -0.39291,1.67349 -0.79807,3.37013 -0.90035,3.77031 l -0.18597,0.7276 h 1.87496 c 1.662266,0 1.859166,-0.0525 1.735836,-0.46302 z m 11.48053,-0.43185 v -9.09697 l -2.3151,0.035 -2.31511,0.035 -0.0777,-1.91823 -0.0777,-1.91823 h 6.89076 6.89075 v 1.92472 1.92472 l -2.24879,-0.006 -2.24879,-0.006 -1.7e-4,9.06198 -1.6e-4,9.06198 h -2.24896 -2.24896 z m 48.41875,6.71571 v -2.38125 h 2.11666 2.11667 v 2.38125 2.38125 h -2.11667 -2.11666 z m 7.79922,1.12447 c 0.1993,-0.69122 1.27199,-4.70958 2.38375,-8.92968 1.11175,-4.22011 2.26616,-8.59993 2.56534,-9.73295 l 0.54396,-2.06003 2.39652,0.0756 2.39653,0.0757 2.72378,10.18646 c 1.49807,5.60255 2.79615,10.51388 2.88461,10.91406 l 0.16083,0.72761 h -2.11891 -2.11892 l -0.42055,-1.44665 c -0.2313,-0.79566 -0.49276,-1.80769 -0.58101,-2.24896 l -0.16047,-0.80231 h -2.73485 -2.73485 l -0.26072,0.99219 c -0.14339,0.5457 -0.40024,1.55773 -0.57077,2.24895 l -0.31006,1.25678 h -2.20329 -2.20329 z m 9.65103,-7.14374 c -0.007,-0.10915 -0.40856,-1.80579 -0.89294,-3.77032 -0.65813,-2.66919 -0.92385,-3.40471 -1.05145,-2.91041 -0.0939,0.3638 -0.50899,2.06044 -0.92241,3.77031 l -0.75166,3.10885 h 1.81536 c 0.99844,0 1.80984,-0.0893 1.8031,-0.19843 z m 9.53725,-2.57969 v -10.98021 h 2.11666 2.11667 v 10.98021 10.98021 h -2.11667 -2.11666 z M 76.143864,167.47842 v -28.24587 l 8.13751,-8.13434 c 4.47564,-4.47388 8.22611,-8.13434 8.33438,-8.13434 0.10827,0 0.19686,16.3711 0.19686,36.38021 v 36.38021 h -8.33437 -8.33438 z m -21.838162,10.18806 c -0.0691,-0.1819 -0.0952,-22.77401 -0.0578,-50.20469 l 0.0679,-49.873951 7.871362,-0.0701 7.87135,-0.0701 v 50.274771 50.27477 h -7.81351 c -6.00737,0 -7.842572,-0.0764 -7.939232,-0.33073 z m 44.592332,-30.64717 v -30.98564 l 7.852496,-7.91198 c 4.31888,-4.35158 7.95068,-7.91197 8.07067,-7.91197 0.11999,0 0.188,17.47241 0.15114,38.82759 l -0.067,38.8276 -8.00365,0.07 -8.003636,0.07 z m -22.68901,-53.093441 0.0671,-34.594278 h 8.20209 8.20208 l 0.0543,26.458328 0.0542,26.458341 -7.99589,8.13593 c -4.39774,4.47476 -8.1433,8.13593 -8.32347,8.13593 -0.25905,0 -0.31353,-7.23675 -0.26045,-34.594251 z m 22.68901,-2.18282 c 0,-7.56708 -0.0298,-13.84763 -0.0661,-13.95677 -0.0364,-0.10914 3.595016,-0.22992 8.069786,-0.26841 l 8.13594,-0.07 -0.006,6.0231 -0.006,6.02309 -7.86539,8.01631 c -4.32597,4.408961 -7.954686,8.010601 -8.063826,8.003641 -0.10914,-0.007 -0.19844,-6.203901 -0.19844,-13.770991 z"
       id="path1" /></g></svg>
